<svg width="700" height="980" viewBox="0 0 700 980" fill="none" xmlns="http://www.w3.org/2000/svg">
  <defs>
    <linearGradient id="bg" x1="0" y1="0" x2="700" y2="980" gradientUnits="userSpaceOnUse">
      <stop stop-color="#151010"/>
      <stop offset="1" stop-color="#281D16"/>
    </linearGradient>
    <radialGradient id="gold" cx="0" cy="0" r="1" gradientUnits="userSpaceOnUse" gradientTransform="translate(360 400) rotate(90) scale(280 220)">
      <stop stop-color="#D4AE62" stop-opacity="0.95"/>
      <stop offset="1" stop-color="#D4AE62" stop-opacity="0"/>
    </radialGradient>
  </defs>
  <rect width="700" height="980" fill="url(#bg)"/>
  <ellipse cx="360" cy="420" rx="300" ry="220" fill="url(#gold)"/>
  <path d="M355 120C349 204 357 282 372 359C388 438 429 502 474 558C521 616 543 678 538 744C531 821 487 888 428 926"
        stroke="#E1C073" stroke-width="4" stroke-linecap="round"/>
  <path d="M355 207C309 234 268 271 240 319M370 260C418 285 462 320 495 362M383 380C337 405 303 449 288 504M412 506C465 528 509 565 534 614M418 645C379 668 349 710 338 754M398 794C446 815 486 848 513 887"
        stroke="#DDBA6E" stroke-width="2" stroke-linecap="round" opacity="0.9"/>
  <circle cx="355" cy="120" r="7" fill="#EED89A"/>
  <circle cx="372" cy="212" r="6" fill="#EED89A"/>
  <circle cx="388" cy="302" r="6" fill="#EED89A"/>
  <circle cx="417" cy="505" r="6" fill="#EED89A"/>
  <circle cx="429" cy="718" r="6" fill="#EED89A"/>
  <path d="M0 884H700" stroke="#201813" stroke-opacity="0.4" stroke-width="2"/>
  <text x="350" y="912" text-anchor="middle" font-family="Inter, sans-serif" font-size="17" letter-spacing="5" fill="#EED89A">RESEARCH</text>
</svg>
